# xmcd CD database file
#
# Track frame offsets:
#	150
#	16561
#	31205
#	46136
#	64803
#	80966
#	94798
#	107096
#	125503
#	144032
#	160254
#	173719
#	189040
#	205722
#	224021
#	239015
#
# Disc length: 3361 seconds
#
# Revision: 0
# Processed by: cddbd v1.4PL0 Copyright (c) Steve Scherf et al.
# Submitted via: CDex 1.51
#
DISCID=d20d1f10
DTITLE=OS NATIVOS - 16 GRANDES SUCESSOS
DYEAR=2003
DGENRE=Gauchesca
TTITLE0=A PRIMEIRA VÊZ
TTITLE1=CAPRICHA GAITEIRO
TTITLE2=REDOMONA
TTITLE3=PENDENGA DE GALO
TTITLE4=SAUDADE MORENA
TTITLE5=BAILE DE COLA ATADA
TTITLE6=DESCENDO A SERRA
TTITLE7=DIVINA MENINA
TTITLE8=CASTELHANA
TTITLE9=BUGIO DA CAPELA
TTITLE10=VAI COMEÇAR
TTITLE11=BAILA BAILA MORENA
TTITLE12=BATE COXA
TTITLE13=CANTA CATARINA
TTITLE14=NA CAPELA
TTITLE15=O TREM
EXTD=YEAR: 2003
EXTT0=
EXTT1=
EXTT2=
EXTT3=
EXTT4=
EXTT5=
EXTT6=
EXTT7=
EXTT8=
EXTT9=
EXTT10=
EXTT11=
EXTT12=
EXTT13=
EXTT14=
EXTT15=
PLAYORDER=
